<svg xmlns="http://www.w3.org/2000/svg" width="48" height="48"><g><radialGradient id="a" cx="90.715" cy="-812.573" r="19.714" gradientTransform="matrix(1 0 0 -.333 -66 -232.286)" gradientUnits="userSpaceOnUse"><stop offset="0"/><stop offset="1"/></radialGradient><path opacity=".532" fill="url(#a)" enable-background="new" d="M44.429 38.571c0 3.63-8.827 6.571-19.714 6.571-10.889.001-19.715-2.941-19.715-6.571 0-3.629 8.826-6.571 19.715-6.571 10.887 0 19.714 2.942 19.714 6.571z"/><path fill="#2654A8" stroke="#0F2556" stroke-width=".48" stroke-linecap="round" stroke-linejoin="round" d="M42.309 23.105c.006 9.965-8.069 18.048-18.035 18.053-9.965.005-18.048-8.07-18.053-18.036v-.017c-.005-9.965 8.07-18.048 18.035-18.052 9.966-.005 18.048 8.07 18.052 18.036l.001.016z"/><path opacity=".677" stroke="#fff" stroke-width=".505" stroke-linecap="round" stroke-linejoin="round" enable-background="new" d="M41.414 23.105c.004 9.471-7.67 17.152-17.141 17.157s-17.152-7.669-17.157-17.14v-.016c-.004-9.471 7.67-17.152 17.141-17.157 9.472-.004 17.153 7.67 17.157 17.141v.015z" fill="none"/><path opacity=".36" fill="#fff" enable-background="new" d="M37.285 24.72c-3.018 5.226-6.544 8.99-12.823 8.99-6.1 0-10.565-4.34-13.353-9.167 2.55 3.057 6.283 6.566 13.087 6.566 8.132 0 9.553-2.906 13.089-6.389z"/><radialGradient id="b" cx="34.554" cy="5.908" r="15.756" gradientTransform="matrix(1.25 0 0 -1.25 -18.355 43.504)" gradientUnits="userSpaceOnUse"><stop offset="0"/><stop offset="1"/></radialGradient><path fill="url(#b)" d="M37.285 24.013c-3.018 5.225-6.544 8.99-12.823 8.99-6.1 0-10.565-4.34-13.353-9.167 2.55 3.057 6.283 6.566 13.087 6.566 8.132 0 9.553-2.906 13.089-6.389z"/><g><path opacity=".36" fill="#fff" enable-background="new" d="M21.752 17.714c0 2.5-1.125 4.5-2.5 4.5s-2.625-2-2.625-4.5 1.125-4.5 2.5-4.5 2.5 2 2.5 4.5h.125z"/><path opacity=".36" fill="#fff" enable-background="new" d="M31.042 17.714c0 2.5-1.125 4.5-2.5 4.5s-2.5-2-2.5-4.5 1.125-4.5 2.5-4.5 2.5 2 2.5 4.5z"/><path d="M21.752 17.089c0 2.5-1.125 4.5-2.5 4.5s-2.5-2-2.5-4.5 1.125-4.5 2.5-4.5 2.5 2 2.5 4.5z"/><path d="M31.042 17.089c0 2.5-1.125 4.5-2.5 4.5s-2.5-2-2.5-4.5 1.125-4.5 2.5-4.5 2.5 2 2.5 4.5z"/></g></g></svg>