<svg xmlns="http://www.w3.org/2000/svg" width="48" height="48"><g><radialGradient id="a" cx="90.715" cy="-812.573" r="19.714" gradientTransform="matrix(1 0 0 -.333 -66 -232.286)" gradientUnits="userSpaceOnUse"><stop offset="0"/><stop offset="1"/></radialGradient><path opacity=".532" fill="url(#a)" enable-background="new" d="M44.429 38.571c0 3.63-8.827 6.571-19.714 6.571-10.889.001-19.715-2.941-19.715-6.571 0-3.629 8.826-6.571 19.715-6.571 10.887 0 19.714 2.942 19.714 6.571z"/><path fill="#2654A8" stroke="#2654A8" stroke-width=".48" stroke-linecap="round" stroke-linejoin="round" d="M42.309 23.105c.006 9.965-8.069 18.048-18.035 18.053-9.965.005-18.048-8.07-18.053-18.036v-.017c-.005-9.965 8.07-18.048 18.035-18.052 9.966-.005 18.048 8.07 18.052 18.036l.001.016z"/><path opacity=".677" stroke="#fff" stroke-width=".505" stroke-linecap="round" stroke-linejoin="round" enable-background="new" d="M41.414 23.105c.004 9.471-7.67 17.152-17.141 17.157s-17.152-7.669-17.157-17.14v-.016c-.004-9.471 7.67-17.152 17.141-17.157 9.472-.004 17.153 7.67 17.157 17.141v.015z" fill="none"/><linearGradient id="b" gradientUnits="userSpaceOnUse" x1="121.463" y1="-407.221" x2="121.463" y2="-419.159" gradientTransform="matrix(.901 0 0 -.513 -85.092 -186.65)"><stop offset="0" stop-color="#A40000"/><stop offset="1" stop-color="#EC0000"/></linearGradient><path fill="url(#b)" stroke="#000" d="M12.469 21.582c-2.637-.622 1.865 6.839 11.792 6.839 9.83 0 14.669-7.443 11.792-6.839-7.506 1.578-17.165 1.514-23.584 0z"/><linearGradient id="c" gradientUnits="userSpaceOnUse" x1="108.417" y1="-407.347" x2="134.042" y2="-407.347" gradientTransform="matrix(.901 0 0 -.513 -84.896 -185.926)"><stop offset="0" stop-color="#696969"/><stop offset=".346" stop-color="#fff"/><stop offset=".725" stop-color="#fff"/><stop offset="1" stop-color="#5C5C5C"/></linearGradient><path fill="url(#c)" d="M13.537 24.178l21.532-.06c.783-.919 1.898-2.372 1.053-2.243-8.023 1.224-16.571 1.796-23.862-.101-1.162-.302.151 1.623 1.277 2.404z"/><path stroke="#000" d="M25.865 15.617c.41-1.534 2.014-2.437 3.581-2.017 1.014.271 1.809 1.052 2.085 2.047" fill="none"/><path stroke="#000" d="M17.115 15.617c.411-1.534 2.015-2.437 3.582-2.017 1.014.271 1.809 1.052 2.085 2.047" fill="none"/></g></svg>