<!DOCTYPE svg PUBLIC "-//W3C//DTD SVG 1.1//EN" "http://www.w3.org/Graphics/SVG/1.1/DTD/svg11.dtd" [
	<!ENTITY ns_flows "http://ns.adobe.com/Flows/1.0/">
]><svg xmlns="http://www.w3.org/2000/svg" width="46" height="78"><linearGradient id="a" gradientUnits="userSpaceOnUse" x1="23.208" y1="77.491" x2="23.208" y2=".125"><stop offset="0" stop-color="#5B5B5B"/><stop offset=".001" stop-color="#646464"/><stop offset=".004" stop-color="#888"/><stop offset=".009" stop-color="#A8A8A8"/><stop offset=".013" stop-color="#C4C4C4"/><stop offset=".018" stop-color="#DADADA"/><stop offset=".024" stop-color="#EBEBEB"/><stop offset=".032" stop-color="#F6F6F6"/><stop offset=".042" stop-color="#FDFDFD"/><stop offset=".071" stop-color="#fff"/><stop offset=".497" stop-color="#fff"/><stop offset=".569" stop-color="#4D4D4D"/><stop offset=".57" stop-color="#4E4E4E"/><stop offset=".676" stop-color="#8D8D8D"/><stop offset=".772" stop-color="#BEBEBE"/><stop offset=".857" stop-color="#E1E1E1"/><stop offset=".925" stop-color="#F7F7F7"/><stop offset=".97" stop-color="#fff"/><stop offset="1" stop-color="#5F5F5F"/></linearGradient><path fill="url(#a)" stroke="#26209E" stroke-width=".25" d="M46.292 69.051c0 4.661-3.675 8.44-8.208 8.44h-29.751c-4.533 0-8.208-3.779-8.208-8.44v-60.486c0-4.661 3.674-8.44 8.208-8.44h29.751c4.533 0 8.208 3.779 8.208 8.44v60.486z"/><rect x="6.629" y="5.479" fill="#fff" stroke="#26209E" stroke-width=".25" width="33.042" height="47.893"/><rect x="6.629" y="57.344" fill="#0A0A0A" stroke="#26209E" stroke-width=".5" width="8.29" height="5.642"/><rect x="19.021" y="57.301" fill="#0A0A0A" stroke="#26209E" stroke-width=".5" width="8.289" height="5.526"/><rect x="31.497" y="57.301" fill="#0A0A0A" stroke="#26209E" stroke-width=".5" width="8.29" height="5.526"/><rect x="31.497" y="66.324" fill="#0A0A0A" stroke="#26209E" stroke-width=".5" width="8.29" height="5.526"/><rect x="19.021" y="66.324" fill="#0A0A0A" stroke="#26209E" stroke-width=".5" width="8.289" height="5.526"/><rect x="6.629" y="66.324" fill="#0A0A0A" stroke="#26209E" stroke-width=".5" width="8.29" height="5.526"/></svg>