<?xml version="1.0" encoding="utf-8"?>
<!-- Generator: Adobe Illustrator 13.0.0, SVG Export Plug-In . SVG Version: 6.00 Build 14948)  -->
<!DOCTYPE svg PUBLIC "-//W3C//DTD SVG 1.1//EN" "http://www.w3.org/Graphics/SVG/1.1/DTD/svg11.dtd">
<svg version="1.1"
	 id="svg4376" xmlns:svg="http://www.w3.org/2000/svg" xmlns:sodipodi="http://sodipodi.sourceforge.net/DTD/sodipodi-0.dtd" xmlns:inkscape="http://www.inkscape.org/namespaces/inkscape" xmlns:dc="http://purl.org/dc/elements/1.1/" xmlns:cc="http://creativecommons.org/ns#" xmlns:rdf="http://www.w3.org/1999/02/22-rdf-syntax-ns#" inkscape:output_extension="org.inkscape.output.svg.inkscape" sodipodi:docname="face-smile-big.svg" sodipodi:docbase="/home/tigert/cvs/freedesktop.org/tango-icon-theme/scalable/emotes" inkscape:version="0.46" sodipodi:version="0.32"
	 xmlns="http://www.w3.org/2000/svg" xmlns:xlink="http://www.w3.org/1999/xlink" x="0px" y="0px" width="48px" height="48px"
	 viewBox="0 0 48 48" enable-background="new 0 0 48 48" xml:space="preserve">
<defs>
	
	
		<inkscape:perspective  id="perspective33" inkscape:persp3d-origin="24 : 16 : 1" inkscape:vp_z="48 : 24 : 1" inkscape:vp_y="0 : 1000 : 0" inkscape:vp_x="0 : 24 : 1" sodipodi:type="inkscape:persp3d">
		</inkscape:perspective>
</defs>
<sodipodi:namedview  stroke="#a40000" fill="#a40000" id="base" showgrid="false" borderopacity="0.19607843" bordercolor="#666666" pagecolor="#ffffff" inkscape:cy="29.929519" inkscape:cx="39.083834" inkscape:zoom="5.6568542" inkscape:window-y="81" inkscape:window-x="234" inkscape:window-height="767" inkscape:window-width="872" inkscape:showpageshadow="false" inkscape:document-units="px" inkscape:grid-bbox="true" inkscape:current-layer="layer1" inkscape:pageshadow="2" inkscape:pageopacity="0.0">
	</sodipodi:namedview>
<g id="layer1" inkscape:groupmode="layer" inkscape:label="Layer 1">
	
		<radialGradient id="path4563_1_" cx="90.7148" cy="-812.5732" r="19.7139" gradientTransform="matrix(1 0 0 -0.3333 -66 -232.2863)" gradientUnits="userSpaceOnUse">
		<stop  offset="0" style="stop-color:#000000"/>
		<stop  offset="1" style="stop-color:#000000"/>
	</radialGradient>
	
		<path id="path4563" sodipodi:cy="38.571430" sodipodi:rx="19.714285" sodipodi:ry="6.5714288" sodipodi:cx="24.714285" sodipodi:type="arc" opacity="0.5316" fill="url(#path4563_1_)" enable-background="new    " d="
		M44.429,38.571c0,3.63-8.827,6.571-19.714,6.571C13.826,45.143,5,42.201,5,38.571l0,0C5,34.942,13.826,32,24.715,32
		C35.602,32,44.429,34.942,44.429,38.571L44.429,38.571z"/>
	
		<path id="path4320" sodipodi:cy="19.008621" sodipodi:rx="8.6620579" sodipodi:ry="8.6620579" sodipodi:cx="31.112698" sodipodi:type="arc" fill="#2654A8" stroke="#2654A8" stroke-width="0.48" stroke-linecap="round" stroke-linejoin="round" d="
		M42.309,23.105c0.006,9.965-8.069,18.048-18.035,18.053c-9.965,0.005-18.048-8.07-18.053-18.036c0-0.005,0-0.011,0-0.017
		C6.216,13.14,14.291,5.057,24.256,5.053c9.966-0.005,18.048,8.07,18.052,18.036C42.309,23.094,42.309,23.1,42.309,23.105z"/>
	
		<path id="path4322" sodipodi:cy="19.008621" sodipodi:rx="8.6620579" sodipodi:ry="8.6620579" sodipodi:cx="31.112698" sodipodi:type="arc" opacity="0.6772" fill="none" stroke="#FFFFFF" stroke-width="0.5051" stroke-linecap="round" stroke-linejoin="round" enable-background="new    " d="
		M41.414,23.105c0.004,9.471-7.67,17.152-17.141,17.157S7.121,32.593,7.116,23.122c0-0.005,0-0.011,0-0.016
		c-0.004-9.471,7.67-17.152,17.141-17.157c9.472-0.004,17.153,7.67,17.157,17.141C41.414,23.095,41.414,23.1,41.414,23.105z"/>
	
		<linearGradient id="path2756_1_" gradientUnits="userSpaceOnUse" x1="121.4629" y1="-407.2212" x2="121.4629" y2="-419.1586" gradientTransform="matrix(0.9006 0 0 -0.5128 -85.0919 -186.6503)">
		<stop  offset="0" style="stop-color:#A40000"/>
		<stop  offset="1" style="stop-color:#EC0000"/>
	</linearGradient>
	<path id="path2756" sodipodi:nodetypes="czss" fill="url(#path2756_1_)" stroke="#000000" stroke-width="1" d="M12.469,21.582
		c-2.637-0.622,1.865,6.839,11.792,6.839c9.83,0,14.669-7.443,11.792-6.839C28.547,23.16,18.888,23.096,12.469,21.582z"/>
	
		<linearGradient id="path3058_1_" gradientUnits="userSpaceOnUse" x1="108.417" y1="-407.3467" x2="134.0415" y2="-407.3467" gradientTransform="matrix(0.9006 0 0 -0.5128 -84.8956 -185.9257)">
		<stop  offset="0" style="stop-color:#696969"/>
		<stop  offset="0.3458" style="stop-color:#FFFFFF"/>
		<stop  offset="0.7249" style="stop-color:#FFFFFF"/>
		<stop  offset="1" style="stop-color:#5C5C5C"/>
	</linearGradient>
	<path id="path3058" sodipodi:nodetypes="ccssc" fill="url(#path3058_1_)" d="M13.537,24.178l21.532-0.06
		c0.783-0.919,1.898-2.372,1.053-2.243c-8.023,1.224-16.571,1.796-23.862-0.101C11.098,21.472,12.411,23.397,13.537,24.178z"/>
	
		<path id="path1364" sodipodi:start="0.0000000" sodipodi:end="2.6179939" sodipodi:open="true" sodipodi:cy="1.8750000" sodipodi:rx="2.9375000" sodipodi:ry="2.8750000" sodipodi:cx="-3.8125000" sodipodi:type="arc" fill="none" stroke="#000000" d="
		M25.865,15.617c0.41-1.534,2.014-2.437,3.581-2.017c1.014,0.271,1.809,1.052,2.085,2.047"/>
	
		<path id="path2094" sodipodi:start="0.0000000" sodipodi:end="2.6179939" sodipodi:open="true" sodipodi:cy="1.8750000" sodipodi:rx="2.9375000" sodipodi:ry="2.8750000" sodipodi:cx="-3.8125000" sodipodi:type="arc" fill="none" stroke="#000000" d="
		M17.115,15.617c0.411-1.534,2.015-2.437,3.582-2.017c1.014,0.271,1.809,1.052,2.085,2.047"/>
</g>
</svg>
